PathFileType	4	(X/Y/Z)	Run_500 01
DataRate	CameraRate	NumFrames	NumMarkers	Units	OrigDataRate	OrigDataStartFrame	OrigNumFrames
120	120	6	42	mm	120	85	128
Frame#	Time	LASI			RASI			LPSI			RPSI			RTH1			RTH2			RTH3			LTH1			LTH2			LTH3			RTB1			RTB2			LTB1			LTB2			LTB3			RCAL			RTOE			RMT5			LCAL			LTOE			LMT5			LACR			RACR			CLAV			C7			RUA1			RUA2			RUA3			RLEL			LUA1			LUA2			LUA3			LLEL			LMEL			RFAsuperior			RFAradius			RFAulna			LFAsuperior			LFAradius			LFAulna			RMEL			RTB3		
		X1	Y1	Z1	X2	Y2	Z2	X3	Y3	Z3	X4	Y4	Z4	X5	Y5	Z5	X6	Y6	Z6	X7	Y7	Z7	X8	Y8	Z8	X9	Y9	Z9	X10	Y10	Z10	X11	Y11	Z11	X12	Y12	Z12	X13	Y13	Z13	X14	Y14	Z14	X15	Y15	Z15	X16	Y16	Z16	X17	Y17	Z17	X18	Y18	Z18	X19	Y19	Z19	X20	Y20	Z20	X21	Y21	Z21	X22	Y22	Z22	X23	Y23	Z23	X24	Y24	Z24	X25	Y25	Z25	X26	Y26	Z26	X27	Y27	Z27	X28	Y28	Z28	X29	Y29	Z29	X30	Y30	Z30	X31	Y31	Z31	X32	Y32	Z32	X33	Y33	Z33	X34	Y34	Z34	X35	Y35	Z35	X36	Y36	Z36	X37	Y37	Z37	X38	Y38	Z38	X39	Y39	Z39	X40	Y40	Z40	X41	Y41	Z41	X42	Y42	Z42	

85	  0.708333	1156.547808	997.420225	-427.642102	1145.413926	1029.964100	-195.044355	993.326134	1058.891780	-375.720823	983.927599	1062.512132	-278.842805	1148.996546	901.030204	-132.356935	1306.051006	845.463721	-163.829811	1317.950929	742.540910	-175.180018	1040.554940	842.179893	-486.342068	1069.923856	724.813345	-457.943201	950.959299	637.304263	-449.645399	1385.744158	544.747093	-237.172740	1305.716530	518.619325	-178.577790	881.321421	404.304067	-383.062249	790.103926	351.710945	-429.370753	756.211944	258.473745	-361.633599	1107.596525	322.564761	-272.114890	1287.735661	211.408356	-274.510244	1249.031645	188.425949	-173.777442	593.660709	240.639872	-353.097289	715.638941	 86.540417	-290.020901	683.235900	 54.147973	-394.452924	1182.405007	1498.561477	-499.685830	1100.176406	1496.607701	-147.558307	1200.116885	1448.652355	-279.543874	1100.744326	1532.033366	-341.665120	1042.021308	1445.296405	-109.797699	1011.982357	1364.822289	-115.457146	936.857788	1398.318067	-143.597106	851.180363	1323.110698	-122.979678	1175.382072	1415.538157	-553.220678	1114.967807	1354.193688	-551.985078	1187.530438	1314.792070	-573.498380	1148.797211	1199.076706	-610.610343	1097.808919	1183.982158	-554.316811	880.281358	1248.682232	-70.502395	899.506982	1067.660945	-27.570156	841.208995	1060.097803	-63.523947	1216.845732	1244.249654	-579.081098	1291.104112	1349.808618	-442.268757	1336.907277	1301.191812	-437.837940	865.358209	1305.518906	-185.684998	1280.924668	392.096539	-237.892049	
86	  0.716667	1161.169725	1000.604731	-425.812304	1147.113305	1038.212789	-195.856726	998.731971	1065.861427	-380.490890	986.568510	1070.562983	-283.486727	1151.141504	913.362208	-134.038429	1304.536695	850.307985	-165.276804	1313.968646	746.415448	-177.503487	1040.579260	848.640746	-489.179646	1062.936307	730.615017	-456.494271	939.262718	650.461140	-449.423742	1397.013473	546.863449	-237.230672	1320.810847	512.214386	-177.521339	863.665151	418.962408	-384.702694	772.781435	366.008906	-432.476453	738.562276	271.675166	-365.042988	1145.002404	295.533067	-270.858562	1336.169994	205.067231	-277.761159	1301.219259	175.350313	-177.922850	581.917070	262.152441	-359.065539	685.578031	 95.760112	-292.535299	651.832880	 65.265772	-395.671204	1185.017709	1507.488789	-496.410065	1096.849048	1503.082770	-147.604701	1198.743048	1455.906108	-277.042864	1100.885536	1538.447917	-341.287355	1038.032628	1453.352216	-110.739332	1007.628831	1372.779679	-116.568705	933.190107	1407.301373	-145.753500	846.837415	1332.281371	-126.745359	1178.973496	1425.523996	-550.844045	1117.232940	1364.461997	-550.346030	1191.389271	1324.738389	-571.718692	1153.785473	1207.647859	-608.550773	1101.058870	1192.926530	-553.649093	875.143582	1258.170335	-74.037541	895.814452	1077.265957	-30.443782	838.118404	1068.829143	-67.204890	1219.978548	1255.369537	-576.214394	1284.570585	1367.039906	-439.022048	1331.906504	1320.062043	-430.799005	861.622065	1315.472497	-189.520290	1309.659713	383.347324	-237.463968	
87	  0.725000	1164.710938	1003.765303	-424.748056	1148.660796	1044.912286	-196.964918	1003.734659	1072.550143	-385.375559	989.250151	1078.430024	-288.068675	1152.787170	923.619931	-136.391447	1301.963840	852.268829	-166.541709	1309.082136	747.635499	-179.719992	1040.515943	854.681168	-492.326304	1056.675917	736.881229	-455.937955	928.575840	664.129893	-447.167384	1406.771642	547.714758	-236.708129	1335.522582	505.108933	-176.427768	849.175813	433.066447	-384.740760	758.862954	380.105725	-434.570624	721.633351	285.861526	-367.245227	1183.142283	270.959354	-269.851040	1382.654165	201.578097	-281.411930	1352.426649	165.803266	-182.264832	570.348190	284.152265	-365.405631	656.544619	108.813723	-294.403512	622.771642	 79.645184	-396.153748	1187.291858	1515.268751	-493.374489	1094.005704	1508.704864	-147.444952	1197.500063	1461.944781	-274.861036	1101.105398	1543.974525	-341.023023	1034.560422	1460.554721	-111.657780	1003.602209	1379.825823	-117.746976	929.802482	1415.637256	-147.581341	842.808176	1340.596190	-130.221207	1181.814026	1434.482963	-548.743645	1118.833701	1373.514893	-547.986183	1194.438343	1333.636169	-570.811874	1157.691598	1215.343022	-607.297051	1103.264323	1201.157572	-553.887975	870.428110	1266.861586	-77.440035	892.937911	1086.047230	-33.388313	835.630146	1076.752600	-70.681145	1222.538701	1264.647940	-574.184009	1278.024505	1381.599700	-436.860618	1326.150267	1335.945737	-425.757718	858.070924	1324.729331	-193.004890	1337.476104	375.673260	-237.360186	
88	  0.733333	1167.088233	1007.130157	-424.581201	1150.043583	1050.086252	-198.265793	1007.861783	1078.844591	-390.046503	991.931850	1085.763106	-292.349530	1153.542807	930.258928	-139.038803	1298.842124	851.613890	-167.660012	1303.979166	746.547918	-181.332889	1040.375497	860.234965	-495.239887	1051.673079	743.404633	-456.543070	920.353194	676.691142	-444.200562	1414.753392	547.207941	-235.901220	1349.487398	497.453873	-175.446734	837.341135	445.533898	-383.122913	747.721223	393.399350	-435.551231	704.803726	300.862356	-368.327077	1221.329613	249.362164	-269.580927	1426.545696	200.327110	-285.187861	1401.467204	159.189024	-186.464737	557.385873	306.522229	-371.938498	627.814428	125.714989	-295.271952	595.253040	 96.935914	-396.010555	1189.270883	1521.798824	-490.874349	1091.562260	1513.348563	-147.185842	1196.533543	1466.843203	-272.937761	1101.405271	1548.658055	-340.783691	1031.643267	1466.783107	-112.515812	999.972950	1385.852418	-118.918981	926.695517	1423.172798	-149.094818	839.094744	1347.896269	-133.529643	1183.961196	1442.133141	-547.039976	1120.235418	1381.070771	-545.638649	1196.787069	1341.272675	-570.662281	1160.450098	1222.138527	-606.837583	1104.427736	1208.642526	-555.035874	866.206209	1274.620664	-80.720726	890.797726	1093.878920	-36.356078	833.711137	1083.764498	-73.840683	1224.590783	1271.930132	-572.929641	1271.929276	1393.064966	-435.431609	1320.288793	1348.384717	-421.917744	854.763320	1333.064688	-196.233575	1364.008109	369.120944	-237.794617	
89	  0.741667	1168.511980	1010.821624	-425.120527	1151.298491	1053.940058	-199.569216	1010.732649	1084.579356	-393.893789	994.439770	1092.176051	-295.865016	1153.056033	932.447138	-141.646608	1295.840593	848.823539	-168.695626	1299.173621	743.554929	-182.019637	1040.180506	865.624275	-497.464808	1048.557256	749.639053	-457.968634	915.959200	686.283547	-442.058592	1420.689541	545.337428	-235.174045	1362.177617	489.575749	-174.672617	827.466796	455.725595	-380.405457	738.380216	405.574320	-435.567995	687.944208	316.457192	-368.624761	1258.694780	231.226547	-270.248026	1467.225930	200.685065	-288.840653	1447.149220	154.774648	-190.508522	542.735557	329.347589	-378.562984	599.280939	146.284046	-295.097957	568.838516	116.827031	-395.494374	1191.022767	1527.061117	-489.066186	1089.469208	1516.966068	-146.863615	1195.941127	1470.778045	-271.188105	1101.752360	1552.596284	-340.383528	1029.268124	1471.903052	-113.234704	996.814722	1390.765370	-120.045790	923.883186	1429.736493	-150.336219	835.789331	1354.053350	-136.735989	1185.561855	1448.297437	-545.837901	1121.580521	1387.146361	-543.998173	1198.491447	1347.598129	-571.039477	1162.004059	1228.101100	-607.139653	1104.596374	1215.391547	-557.010862	862.552783	1281.305362	-83.872801	889.335529	1100.590798	-39.347490	832.328058	1089.754096	-76.661349	1226.032889	1277.323592	-572.291398	1266.797114	1401.086820	-434.179875	1315.087238	1356.959783	-418.585480	851.828578	1340.256949	-199.258459	1388.740587	363.679342	-238.808475	
90	  0.750000	1169.363223	1014.850947	-426.016126	1152.476687	1056.632443	-200.799032	1012.256983	1089.554002	-396.288633	996.558501	1097.293288	-298.044660	1151.250426	930.589778	-143.987674	1293.379362	844.379385	-169.645262	1294.795653	738.924835	-181.874402	1040.079722	871.221785	-498.902303	1047.856861	754.813502	-459.309957	915.864267	691.747560	-441.487959	1424.425651	542.249221	-234.874581	1373.013684	481.949485	-174.198855	819.020691	463.759587	-377.424147	729.997583	416.868131	-435.047017	671.432532	332.591909	-368.604313	1294.103616	216.752184	-271.737743	1504.034238	202.286149	-292.115085	1488.322263	152.193938	-194.582607	527.434955	352.939784	-385.145152	571.438403	170.106138	-294.153792	543.389060	139.113628	-394.742227	1192.575445	1531.125243	-487.915428	1087.747086	1519.622591	-146.391214	1195.731072	1473.947465	-269.562028	1102.074617	1555.879878	-339.594168	1027.378806	1475.820170	-113.688610	994.202519	1394.513018	-121.099760	921.422209	1435.150263	-151.331629	833.051839	1358.964202	-139.831203	1186.813430	1452.934995	-545.181070	1122.727427	1392.020066	-543.427858	1199.576385	1352.687444	-571.665482	1162.325426	1233.329986	-608.132919	1103.792973	1221.450736	-559.646734	859.542321	1286.767391	-86.871919	888.514898	1106.041746	-42.315105	831.471716	1094.593714	-79.200126	1226.661900	1281.075752	-572.037992	1263.098584	1405.499550	-432.551616	1311.153885	1361.401281	-415.435750	849.432300	1346.111292	-202.070696	1410.975436	359.297878	-240.285869	
